<?xml version="1.0" encoding="utf-8"?>
<!-- Generator: Adobe Illustrator 27.0.0, SVG Export Plug-In . SVG Version: 6.00 Build 0)  -->
<svg version="1.1" id="Layer_1" xmlns="http://www.w3.org/2000/svg" xmlns:xlink="http://www.w3.org/1999/xlink" x="0px" y="0px"
	 viewBox="0 0 425.3 221.1" style="enable-background:new 0 0 425.3 221.1;" xml:space="preserve">
<style type="text/css">
	.st0{fill:#48A529;}
	.st1{fill:#6CDDB4;}
	.st2{fill:#005957;}
	.st3{fill:#231F20;}
	.st4{fill:#FFFFFF;}
</style>
<g>
	<g>
		<g>
			<path class="st3" d="M217.8,52.9c0,0.6-0.1,1.2-0.2,1.8c-0.1,0.6-0.4,1.2-0.7,1.7c-0.3,0.5-0.7,1-1.1,1.4c-0.5,0.4-1,0.7-1.7,0.9
				V59c0.6,0.1,1.1,0.3,1.6,0.6c0.5,0.3,1,0.6,1.4,1.1c0.4,0.5,0.7,1.1,0.9,1.8c0.2,0.7,0.4,1.5,0.4,2.5c0,1.3-0.2,2.4-0.6,3.3
				c-0.4,0.9-0.9,1.7-1.6,2.3c-0.7,0.6-1.5,1-2.4,1.3c-0.9,0.3-1.9,0.4-2.9,0.4c-0.3,0-0.7,0-1.1,0s-0.9,0-1.4-0.1
				c-0.5,0-1-0.1-1.5-0.1c-0.5-0.1-0.9-0.1-1.3-0.3V47.6c0.7-0.1,1.5-0.3,2.5-0.4c0.9-0.1,2-0.1,3.1-0.1c0.8,0,1.6,0.1,2.4,0.2
				c0.8,0.2,1.5,0.4,2.1,0.9c0.6,0.4,1.1,1,1.5,1.8C217.6,50.7,217.8,51.7,217.8,52.9z M209.7,58.3c0.3,0,0.7,0,1.1,0
				c0.4,0,0.8-0.1,1.1-0.1c0.9-0.4,1.6-0.9,2.2-1.7c0.6-0.8,0.9-1.7,0.9-2.9c0-0.8-0.1-1.4-0.3-1.9c-0.2-0.5-0.5-0.9-0.9-1.2
				c-0.4-0.3-0.8-0.5-1.3-0.6c-0.5-0.1-1-0.2-1.5-0.2c-0.6,0-1.2,0-1.6,0.1c-0.5,0-0.9,0.1-1.1,0.1v8.6H209.7z M211.2,69.8
				c0.6,0,1.2-0.1,1.8-0.3c0.5-0.2,1-0.5,1.4-0.9c0.4-0.4,0.7-0.9,1-1.5c0.2-0.6,0.4-1.2,0.4-2c0-1-0.1-1.7-0.4-2.3
				c-0.3-0.6-0.7-1.1-1.1-1.4c-0.5-0.3-1-0.5-1.6-0.7c-0.6-0.1-1.2-0.2-1.8-0.2h-2.3v9c0.1,0,0.3,0.1,0.5,0.1c0.2,0,0.5,0,0.7,0.1
				c0.3,0,0.5,0,0.8,0.1C210.7,69.8,210.9,69.8,211.2,69.8z"/>
			<path class="st3" d="M223.2,47.4h2.6v24.5h-2.6V47.4z"/>
			<path class="st3" d="M230.5,59.6c0-4.2,0.7-7.3,2-9.5c1.3-2.2,3.4-3.2,6.1-3.2c1.5,0,2.7,0.3,3.8,0.9c1,0.6,1.9,1.4,2.5,2.5
				c0.6,1.1,1.1,2.4,1.4,4c0.3,1.6,0.5,3.3,0.5,5.3c0,4.2-0.7,7.3-2,9.5c-1.3,2.2-3.4,3.2-6.1,3.2c-1.4,0-2.7-0.3-3.7-0.9
				c-1-0.6-1.9-1.4-2.5-2.5c-0.7-1.1-1.1-2.4-1.4-4C230.7,63.3,230.5,61.6,230.5,59.6z M233.3,59.6c0,1.4,0.1,2.7,0.3,3.9
				c0.2,1.2,0.5,2.3,0.9,3.3c0.4,0.9,1,1.7,1.6,2.2c0.7,0.6,1.5,0.8,2.5,0.8c1.8,0,3.1-0.8,4-2.5c0.9-1.7,1.4-4.3,1.4-7.7
				c0-1.4-0.1-2.7-0.3-3.9c-0.2-1.2-0.5-2.3-0.9-3.3c-0.4-0.9-1-1.7-1.6-2.3c-0.7-0.6-1.5-0.8-2.5-0.8c-1.7,0-3,0.8-4,2.5
				C233.7,53.6,233.3,56.1,233.3,59.6z"/>
			<path class="st3" d="M251,47.4c0.4-0.1,0.8-0.1,1.2-0.2s0.9-0.1,1.4-0.1c0.5,0,0.9,0,1.4,0c0.5,0,0.9,0,1.3,0
				c1.7,0,3.2,0.3,4.3,0.9c1.2,0.6,2.2,1.4,2.9,2.5c0.7,1.1,1.3,2.4,1.6,3.9c0.3,1.5,0.5,3.2,0.5,5.1c0,1.7-0.2,3.3-0.5,4.8
				c-0.3,1.5-0.8,2.9-1.6,4.1c-0.7,1.2-1.7,2.1-3,2.8c-1.2,0.7-2.8,1.1-4.6,1.1c-0.3,0-0.7,0-1.2,0c-0.5,0-1,0-1.5-0.1
				c-0.5,0-1-0.1-1.4-0.1c-0.4,0-0.8-0.1-1-0.1V47.4z M256.4,49.5c-0.2,0-0.5,0-0.8,0c-0.3,0-0.5,0-0.8,0c-0.3,0-0.5,0-0.7,0.1
				c-0.2,0-0.4,0-0.5,0.1v20c0.1,0,0.3,0,0.5,0.1c0.2,0,0.5,0,0.8,0c0.3,0,0.5,0,0.8,0c0.2,0,0.4,0,0.5,0c1.3,0,2.4-0.3,3.2-0.8
				c0.9-0.6,1.5-1.3,2.1-2.3c0.5-0.9,0.9-2,1.1-3.3c0.2-1.3,0.3-2.6,0.3-4c0-1.2-0.1-2.5-0.3-3.6c-0.2-1.2-0.5-2.2-1-3.2
				c-0.5-0.9-1.1-1.7-2-2.2C258.8,49.8,257.7,49.5,256.4,49.5z"/>
			<path class="st3" d="M270.3,47.4h2.6v24.5h-2.6V47.4z"/>
			<path class="st3" d="M283.8,64.1l0.6,3.8h0.1l0.7-3.8l4.6-16.7h2.7l-7.4,24.9h-1.4l-7.5-24.9h2.9L283.8,64.1z"/>
			<path class="st3" d="M295.1,47.4H306v2.4h-8.3v8.3h7.6v2.4h-7.6v9h8.4v2.4h-11.1V47.4z"/>
			<path class="st3" d="M310.6,47.6c0.8-0.2,1.6-0.3,2.5-0.4c0.9-0.1,1.8-0.1,2.5-0.1c0.9,0,1.8,0.1,2.6,0.3
				c0.8,0.2,1.5,0.6,2.1,1.1c0.6,0.5,1.1,1.2,1.5,2.1c0.4,0.9,0.5,1.9,0.5,3.2c0,1.9-0.4,3.5-1.2,4.7c-0.8,1.2-1.9,2-3.2,2.3
				l1.3,1.3l4.8,9.8h-3l-5.3-10.7l-2.6-0.5v11.2h-2.6V47.6z M313.3,58.9h2.1c1.3,0,2.4-0.4,3.2-1.2c0.8-0.8,1.2-2.1,1.2-3.8
				c0-1.3-0.3-2.3-1-3.2c-0.6-0.8-1.6-1.3-2.9-1.3c-0.5,0-1,0-1.5,0.1c-0.5,0-0.9,0.1-1.1,0.2V58.9z"/>
			<path class="st3" d="M327.7,68.6c0.4,0.3,1.1,0.6,1.9,0.9c0.8,0.3,1.7,0.4,2.8,0.4c1.3,0,2.4-0.3,3.2-1c0.8-0.6,1.2-1.7,1.2-3
				c0-0.9-0.2-1.7-0.7-2.4c-0.5-0.7-1.1-1.3-1.8-1.9c-0.7-0.6-1.5-1.1-2.3-1.7c-0.8-0.5-1.6-1.2-2.3-1.8c-0.7-0.7-1.3-1.4-1.8-2.3
				c-0.5-0.9-0.7-1.9-0.7-3.1c0-2,0.6-3.4,1.8-4.4c1.2-0.9,2.7-1.4,4.6-1.4c1.2,0,2.2,0.1,3.1,0.3c0.9,0.2,1.6,0.5,2.2,0.8l-0.8,2.3
				c-0.4-0.3-1-0.5-1.8-0.7c-0.8-0.2-1.7-0.3-2.7-0.3c-1.3,0-2.2,0.3-2.8,0.9c-0.6,0.6-0.9,1.4-0.9,2.3c0,0.8,0.2,1.5,0.7,2.2
				c0.5,0.6,1.1,1.2,1.8,1.8s1.5,1.1,2.3,1.7c0.8,0.6,1.6,1.2,2.3,1.9c0.7,0.7,1.3,1.5,1.8,2.4c0.5,0.9,0.7,1.9,0.7,3.2
				c0,2.1-0.6,3.7-1.8,4.8c-1.2,1.2-2.9,1.8-5.2,1.8c-1.4,0-2.6-0.1-3.5-0.4c-0.9-0.3-1.6-0.5-2.2-0.9L327.7,68.6z"/>
			<path class="st3" d="M343.9,47.4h2.6v24.5h-2.6V47.4z"/>
			<path class="st3" d="M364.9,49.8h-6v22.1h-2.6V49.8h-6v-2.4h14.7V49.8z"/>
			<path class="st3" d="M371.9,62.2l-6.5-14.8h3l4.4,10.7l0.5,2.1h0.1l0.5-2.2l4.3-10.6h2.8l-6.5,14.8v9.8h-2.6V62.2z"/>
			<path class="st3" d="M217.8,86.1c0,0.6-0.1,1.2-0.2,1.8c-0.1,0.6-0.4,1.2-0.7,1.7c-0.3,0.5-0.7,1-1.1,1.4c-0.5,0.4-1,0.7-1.7,0.9
				v0.1c0.6,0.1,1.1,0.3,1.6,0.6c0.5,0.3,1,0.6,1.4,1.1c0.4,0.5,0.7,1.1,0.9,1.8c0.2,0.7,0.4,1.5,0.4,2.5c0,1.3-0.2,2.4-0.6,3.3
				c-0.4,0.9-0.9,1.7-1.6,2.3c-0.7,0.6-1.5,1-2.4,1.3c-0.9,0.3-1.9,0.4-2.9,0.4c-0.3,0-0.7,0-1.1,0s-0.9,0-1.4-0.1
				c-0.5,0-1-0.1-1.5-0.1c-0.5-0.1-0.9-0.1-1.3-0.3V80.8c0.7-0.1,1.5-0.3,2.5-0.4c0.9-0.1,2-0.1,3.1-0.1c0.8,0,1.6,0.1,2.4,0.2
				c0.8,0.2,1.5,0.4,2.1,0.9c0.6,0.4,1.1,1,1.5,1.8C217.6,83.9,217.8,84.9,217.8,86.1z M209.7,91.5c0.3,0,0.7,0,1.1,0
				c0.4,0,0.8-0.1,1.1-0.1c0.9-0.4,1.6-0.9,2.2-1.7c0.6-0.8,0.9-1.7,0.9-2.9c0-0.8-0.1-1.4-0.3-1.9c-0.2-0.5-0.5-0.9-0.9-1.2
				c-0.4-0.3-0.8-0.5-1.3-0.6c-0.5-0.1-1-0.2-1.5-0.2c-0.6,0-1.2,0-1.6,0.1c-0.5,0-0.9,0.1-1.1,0.1v8.6H209.7z M211.2,103
				c0.6,0,1.2-0.1,1.8-0.3c0.5-0.2,1-0.5,1.4-0.9c0.4-0.4,0.7-0.9,1-1.5c0.2-0.6,0.4-1.2,0.4-2c0-1-0.1-1.7-0.4-2.3
				c-0.3-0.6-0.7-1.1-1.1-1.4c-0.5-0.3-1-0.5-1.6-0.7c-0.6-0.1-1.2-0.2-1.8-0.2h-2.3v9c0.1,0,0.3,0.1,0.5,0.1c0.2,0,0.5,0,0.7,0.1
				c0.3,0,0.5,0,0.8,0.1C210.7,103,210.9,103,211.2,103z"/>
			<path class="st3" d="M233.9,80.6h2.5V97c0,3-0.6,5.1-1.7,6.4s-2.8,2-4.9,2c-2.5,0-4.3-0.6-5.4-1.9c-1.1-1.3-1.7-3.3-1.7-5.9v-17
				h2.6v15.6c0,1.3,0.1,2.3,0.2,3.2c0.2,0.9,0.4,1.6,0.8,2.1c0.4,0.5,0.8,0.9,1.4,1.2c0.6,0.2,1.2,0.4,2.1,0.4
				c1.5,0,2.6-0.5,3.2-1.6c0.6-1.1,0.9-2.8,0.9-5.2V80.6z"/>
			<path class="st3" d="M241.9,80.6h2.6v24.5h-2.6V80.6z"/>
			<path class="st3" d="M261.8,105.1H250V80.6h2.6v22.1h9.2V105.1z"/>
			<path class="st3" d="M265,80.6c0.4-0.1,0.8-0.1,1.2-0.2c0.5,0,0.9-0.1,1.4-0.1c0.5,0,0.9,0,1.4,0c0.5,0,0.9,0,1.3,0
				c1.7,0,3.2,0.3,4.3,0.9c1.2,0.6,2.2,1.4,2.9,2.5c0.7,1.1,1.3,2.4,1.6,3.9c0.3,1.5,0.5,3.2,0.5,5.1c0,1.7-0.2,3.3-0.5,4.8
				c-0.3,1.5-0.8,2.9-1.6,4.1c-0.7,1.2-1.7,2.1-3,2.8c-1.2,0.7-2.8,1.1-4.6,1.1c-0.3,0-0.7,0-1.2,0c-0.5,0-1,0-1.5-0.1
				c-0.5,0-1-0.1-1.4-0.1c-0.4,0-0.8-0.1-1-0.1V80.6z M270.4,82.7c-0.2,0-0.5,0-0.8,0s-0.5,0-0.8,0c-0.3,0-0.5,0-0.7,0.1
				c-0.2,0-0.4,0-0.5,0.1v20c0.1,0,0.3,0,0.5,0.1c0.2,0,0.5,0,0.8,0c0.3,0,0.5,0,0.8,0c0.2,0,0.4,0,0.5,0c1.3,0,2.4-0.3,3.2-0.8
				c0.9-0.6,1.5-1.3,2.1-2.3c0.5-0.9,0.9-2,1.1-3.3c0.2-1.3,0.3-2.6,0.3-4c0-1.2-0.1-2.5-0.3-3.6c-0.2-1.2-0.5-2.2-1-3.2
				c-0.5-0.9-1.1-1.7-2-2.2C272.8,83,271.7,82.7,270.4,82.7z"/>
			<path class="st3" d="M284.4,80.6h2.6v24.5h-2.6V80.6z"/>
			<path class="st3" d="M296.2,89.5l-1.5-3.9h-0.1l0.4,3.9v15.6h-2.5V80.2h1.6l9.1,15.9l1.4,3.7h0.1l-0.4-3.7V80.6h2.5v24.9h-1.6
				L296.2,89.5z"/>
			<path class="st3" d="M318.5,92.9h6.8v10.8c-0.7,0.6-1.5,1.1-2.5,1.4c-1,0.3-2.1,0.5-3.1,0.5c-1.3,0-2.5-0.2-3.6-0.7
				c-1.1-0.5-2-1.3-2.7-2.3c-0.7-1-1.3-2.4-1.7-3.9c-0.4-1.6-0.6-3.5-0.6-5.7c0-2.3,0.2-4.2,0.7-5.8c0.5-1.6,1.2-2.9,2-3.9
				c0.8-1,1.8-1.8,2.8-2.2c1.1-0.5,2.2-0.7,3.3-0.7s2.1,0.1,2.8,0.2c0.8,0.2,1.4,0.4,1.9,0.6l-0.6,2.4c-0.5-0.3-1-0.5-1.7-0.6
				c-0.6-0.1-1.4-0.2-2.2-0.2c-0.8,0-1.6,0.2-2.3,0.5s-1.4,0.9-2,1.7c-0.6,0.8-1.1,1.9-1.4,3.2c-0.4,1.3-0.5,2.9-0.5,4.8
				c0,3.5,0.6,6.1,1.7,7.8c1.1,1.7,2.6,2.5,4.6,2.5c1.2,0,2.2-0.3,3-0.9v-7.1l-4.5-0.7V92.9z"/>
			<path class="st3" d="M217.8,119.4c0,0.6-0.1,1.2-0.2,1.8c-0.1,0.6-0.4,1.2-0.7,1.7c-0.3,0.5-0.7,1-1.1,1.4
				c-0.5,0.4-1,0.7-1.7,0.9v0.1c0.6,0.1,1.1,0.3,1.6,0.6c0.5,0.3,1,0.6,1.4,1.1c0.4,0.5,0.7,1.1,0.9,1.8c0.2,0.7,0.4,1.5,0.4,2.5
				c0,1.3-0.2,2.4-0.6,3.3c-0.4,0.9-0.9,1.7-1.6,2.3c-0.7,0.6-1.5,1-2.4,1.3c-0.9,0.3-1.9,0.4-2.9,0.4c-0.3,0-0.7,0-1.1,0
				s-0.9,0-1.4-0.1c-0.5,0-1-0.1-1.5-0.1c-0.5-0.1-0.9-0.1-1.3-0.3V114c0.7-0.1,1.5-0.3,2.5-0.4c0.9-0.1,2-0.1,3.1-0.1
				c0.8,0,1.6,0.1,2.4,0.2c0.8,0.2,1.5,0.4,2.1,0.9c0.6,0.4,1.1,1,1.5,1.8C217.6,117.1,217.8,118.1,217.8,119.4z M209.7,124.7
				c0.3,0,0.7,0,1.1,0c0.4,0,0.8-0.1,1.1-0.1c0.9-0.4,1.6-0.9,2.2-1.7c0.6-0.8,0.9-1.7,0.9-2.9c0-0.8-0.1-1.4-0.3-1.9
				c-0.2-0.5-0.5-0.9-0.9-1.2c-0.4-0.3-0.8-0.5-1.3-0.6c-0.5-0.1-1-0.2-1.5-0.2c-0.6,0-1.2,0-1.6,0.1c-0.5,0-0.9,0.1-1.1,0.1v8.6
				H209.7z M211.2,136.2c0.6,0,1.2-0.1,1.8-0.3c0.5-0.2,1-0.5,1.4-0.9c0.4-0.4,0.7-0.9,1-1.5c0.2-0.6,0.4-1.2,0.4-2
				c0-1-0.1-1.7-0.4-2.3c-0.3-0.6-0.7-1.1-1.1-1.4c-0.5-0.3-1-0.5-1.6-0.7c-0.6-0.1-1.2-0.2-1.8-0.2h-2.3v9c0.1,0,0.3,0.1,0.5,0.1
				c0.2,0,0.5,0,0.7,0.1c0.3,0,0.5,0,0.8,0.1C210.7,136.2,210.9,136.2,211.2,136.2z"/>
			<path class="st3" d="M234.4,138.3h-11.8v-24.5h2.6v22.1h9.2V138.3z"/>
			<path class="st3" d="M234.9,126.1c0-4.2,0.7-7.3,2-9.5c1.3-2.2,3.4-3.2,6.1-3.2c1.5,0,2.7,0.3,3.8,0.9c1,0.6,1.9,1.4,2.5,2.5
				c0.6,1.1,1.1,2.4,1.4,4c0.3,1.6,0.5,3.3,0.5,5.3c0,4.2-0.7,7.3-2,9.5c-1.3,2.2-3.4,3.2-6.1,3.2c-1.4,0-2.7-0.3-3.7-0.9
				c-1-0.6-1.9-1.4-2.5-2.5c-0.7-1.1-1.1-2.4-1.4-4C235,129.7,234.9,128,234.9,126.1z M237.7,126.1c0,1.4,0.1,2.7,0.3,3.9
				c0.2,1.2,0.5,2.3,0.9,3.3c0.4,0.9,1,1.7,1.6,2.2c0.7,0.6,1.5,0.8,2.5,0.8c1.8,0,3.1-0.8,4-2.5c0.9-1.7,1.4-4.3,1.4-7.7
				c0-1.4-0.1-2.7-0.3-3.9c-0.2-1.2-0.5-2.3-0.9-3.3c-0.4-0.9-1-1.7-1.6-2.3c-0.7-0.6-1.5-0.8-2.5-0.8c-1.7,0-3,0.8-4,2.5
				S237.7,122.6,237.7,126.1z"/>
			<path class="st3" d="M268.2,137.4c-0.6,0.5-1.3,0.8-2.2,1.1c-0.9,0.2-1.8,0.3-2.8,0.3c-1.2,0-2.4-0.2-3.4-0.7
				c-1.1-0.5-2-1.2-2.7-2.2c-0.8-1-1.3-2.3-1.8-3.9c-0.4-1.6-0.6-3.6-0.6-5.8c0-2.3,0.2-4.3,0.7-5.9c0.5-1.6,1.1-2.9,1.9-3.9
				c0.8-1,1.7-1.7,2.8-2.2c1-0.4,2.1-0.7,3.2-0.7c1.1,0,2.1,0.1,2.8,0.2c0.7,0.2,1.4,0.4,1.9,0.6l-0.6,2.4c-0.5-0.3-1-0.5-1.6-0.6
				c-0.6-0.1-1.4-0.2-2.2-0.2s-1.6,0.2-2.3,0.5c-0.7,0.4-1.4,0.9-1.9,1.8c-0.6,0.8-1,1.9-1.3,3.2c-0.3,1.3-0.5,2.9-0.5,4.8
				c0,3.4,0.6,6,1.8,7.7c1.2,1.7,2.7,2.6,4.7,2.6c0.8,0,1.5-0.1,2.1-0.3c0.6-0.2,1.2-0.5,1.6-0.8L268.2,137.4z"/>
			<path class="st3" d="M275.7,127h-1.3v11.4h-2.6v-24.5h2.6v11.4l1.2-0.5l6.4-10.9h3l-6.4,10.6l-1.2,1.1l1.4,1.4l7.1,11.4h-3.3
				L275.7,127z"/>
			<path class="st3" d="M289.4,135.1c0.4,0.3,1.1,0.6,1.9,0.9c0.8,0.3,1.7,0.4,2.8,0.4c1.3,0,2.4-0.3,3.2-1c0.8-0.6,1.2-1.7,1.2-3
				c0-0.9-0.2-1.7-0.7-2.4c-0.5-0.7-1.1-1.3-1.8-1.9c-0.7-0.6-1.5-1.1-2.3-1.7c-0.8-0.5-1.6-1.2-2.3-1.8c-0.7-0.7-1.3-1.4-1.8-2.3
				c-0.5-0.9-0.7-1.9-0.7-3.1c0-2,0.6-3.4,1.8-4.4c1.2-0.9,2.7-1.4,4.6-1.4c1.2,0,2.2,0.1,3.1,0.3c0.9,0.2,1.6,0.5,2.2,0.8l-0.8,2.3
				c-0.4-0.3-1-0.5-1.8-0.7c-0.8-0.2-1.7-0.3-2.7-0.3c-1.3,0-2.2,0.3-2.8,0.9c-0.6,0.6-0.9,1.4-0.9,2.3c0,0.8,0.2,1.5,0.7,2.2
				c0.5,0.6,1.1,1.2,1.8,1.8c0.7,0.6,1.5,1.1,2.3,1.7c0.8,0.6,1.6,1.2,2.3,1.9c0.7,0.7,1.3,1.5,1.8,2.4c0.5,0.9,0.7,1.9,0.7,3.2
				c0,2.1-0.6,3.7-1.8,4.8c-1.2,1.2-2.9,1.8-5.2,1.8c-1.4,0-2.6-0.1-3.5-0.4c-0.9-0.3-1.6-0.5-2.2-0.9L289.4,135.1z"/>
			<path class="st3" d="M312.9,113.8h10.9v2.4h-8.3v8.7h7.7v2.4h-7.7v11h-2.6V113.8z"/>
			<path class="st3" d="M327.5,126.1c0-4.2,0.7-7.3,2-9.5c1.3-2.2,3.4-3.2,6.1-3.2c1.5,0,2.7,0.3,3.8,0.9c1,0.6,1.9,1.4,2.5,2.5
				c0.6,1.1,1.1,2.4,1.4,4c0.3,1.6,0.5,3.3,0.5,5.3c0,4.2-0.7,7.3-2,9.5c-1.3,2.2-3.4,3.2-6.1,3.2c-1.4,0-2.7-0.3-3.7-0.9
				c-1-0.6-1.9-1.4-2.5-2.5c-0.7-1.1-1.1-2.4-1.4-4C327.7,129.7,327.5,128,327.5,126.1z M330.3,126.1c0,1.4,0.1,2.7,0.3,3.9
				c0.2,1.2,0.5,2.3,0.9,3.3c0.4,0.9,1,1.7,1.6,2.2c0.7,0.6,1.5,0.8,2.5,0.8c1.8,0,3.1-0.8,4-2.5c0.9-1.7,1.4-4.3,1.4-7.7
				c0-1.4-0.1-2.7-0.3-3.9c-0.2-1.2-0.5-2.3-0.9-3.3c-0.4-0.9-1-1.7-1.6-2.3c-0.7-0.6-1.5-0.8-2.5-0.8c-1.7,0-3,0.8-4,2.5
				S330.3,122.6,330.3,126.1z"/>
			<path class="st3" d="M348.3,114c0.8-0.2,1.6-0.3,2.5-0.4c0.9-0.1,1.8-0.1,2.5-0.1c0.9,0,1.8,0.1,2.6,0.3c0.8,0.2,1.5,0.6,2.1,1.1
				c0.6,0.5,1.1,1.2,1.5,2.1c0.4,0.9,0.5,1.9,0.5,3.2c0,1.9-0.4,3.5-1.2,4.7c-0.8,1.2-1.9,2-3.2,2.3l1.3,1.3l4.8,9.8h-3l-5.3-10.7
				l-2.6-0.5v11.2h-2.6V114z M351,125.4h2.1c1.3,0,2.4-0.4,3.2-1.2c0.8-0.8,1.2-2.1,1.2-3.8c0-1.3-0.3-2.3-1-3.2
				c-0.6-0.8-1.6-1.3-2.9-1.3c-0.5,0-1,0-1.5,0.1c-0.5,0-0.9,0.1-1.1,0.2V125.4z"/>
			<path class="st3" d="M205.7,147.2c0.7-0.2,1.5-0.4,2.4-0.4c0.8-0.1,1.7-0.1,2.5-0.1c0.9,0,1.9,0.1,2.8,0.3
				c0.9,0.2,1.7,0.6,2.5,1.2c0.7,0.6,1.3,1.3,1.8,2.3c0.5,1,0.7,2.2,0.7,3.8c0,1.5-0.2,2.7-0.6,3.8c-0.4,1-1,1.9-1.7,2.5
				c-0.7,0.6-1.5,1.1-2.5,1.4s-1.9,0.4-2.9,0.4c-0.1,0-0.2,0-0.5,0c-0.2,0-0.4,0-0.7,0c-0.2,0-0.5,0-0.7-0.1c-0.2,0-0.4,0-0.5-0.1
				v9.3h-2.6V147.2z M210.7,149.1c-0.5,0-0.9,0-1.3,0.1c-0.4,0-0.8,0.1-1,0.2v10.4c0.1,0,0.2,0.1,0.4,0.1c0.2,0,0.4,0,0.6,0
				c0.2,0,0.4,0,0.6,0c0.2,0,0.3,0,0.4,0c0.7,0,1.3-0.1,1.9-0.2c0.6-0.2,1.1-0.5,1.6-0.9c0.5-0.4,0.8-1,1.1-1.8s0.4-1.7,0.4-2.8
				c0-1-0.1-1.8-0.4-2.5s-0.6-1.2-1.1-1.6c-0.4-0.4-0.9-0.7-1.5-0.8C211.9,149.2,211.3,149.1,210.7,149.1z"/>
			<path class="st3" d="M221.1,159.3c0-4.2,0.7-7.3,2-9.5c1.3-2.2,3.4-3.2,6.1-3.2c1.5,0,2.7,0.3,3.8,0.9c1,0.6,1.9,1.4,2.5,2.5
				c0.6,1.1,1.1,2.4,1.4,4c0.3,1.6,0.5,3.3,0.5,5.3c0,4.2-0.7,7.3-2,9.5c-1.3,2.2-3.4,3.2-6.1,3.2c-1.4,0-2.7-0.3-3.7-0.9
				c-1-0.6-1.9-1.4-2.5-2.5c-0.7-1.1-1.1-2.4-1.4-4C221.3,163,221.1,161.2,221.1,159.3z M223.9,159.3c0,1.4,0.1,2.7,0.3,3.9
				c0.2,1.2,0.5,2.3,0.9,3.3c0.4,0.9,1,1.7,1.6,2.2c0.7,0.6,1.5,0.8,2.5,0.8c1.8,0,3.1-0.8,4-2.5c0.9-1.7,1.4-4.3,1.4-7.7
				c0-1.4-0.1-2.7-0.3-3.9c-0.2-1.2-0.5-2.3-0.9-3.3c-0.4-0.9-1-1.7-1.6-2.3c-0.7-0.6-1.5-0.8-2.5-0.8c-1.7,0-3,0.8-4,2.5
				C224.3,153.2,223.9,155.8,223.9,159.3z"/>
			<path class="st3" d="M253.8,171.5h-11.8V147h2.6v22.1h9.2V171.5z"/>
			<path class="st3" d="M257.9,147h2.6v24.5h-2.6V147z"/>
			<path class="st3" d="M279.2,170.6c-0.6,0.5-1.3,0.8-2.2,1.1c-0.9,0.2-1.8,0.3-2.8,0.3c-1.2,0-2.4-0.2-3.4-0.7
				c-1.1-0.5-2-1.2-2.7-2.2c-0.8-1-1.3-2.3-1.8-3.9c-0.4-1.6-0.6-3.6-0.6-5.8c0-2.3,0.2-4.3,0.7-5.9c0.5-1.6,1.1-2.9,1.9-3.9
				c0.8-1,1.7-1.7,2.8-2.2c1-0.4,2.1-0.7,3.2-0.7c1.1,0,2.1,0.1,2.8,0.2c0.7,0.2,1.4,0.4,1.9,0.6l-0.6,2.4c-0.5-0.3-1-0.5-1.6-0.6
				c-0.6-0.1-1.4-0.2-2.2-0.2s-1.6,0.2-2.3,0.5c-0.7,0.4-1.4,0.9-1.9,1.8c-0.6,0.8-1,1.9-1.3,3.2c-0.3,1.3-0.5,2.9-0.5,4.8
				c0,3.4,0.6,6,1.8,7.7c1.2,1.7,2.7,2.6,4.7,2.6c0.8,0,1.5-0.1,2.1-0.3c0.6-0.2,1.2-0.5,1.6-0.8L279.2,170.6z"/>
			<path class="st3" d="M286.6,161.8l-6.5-14.8h3l4.4,10.7l0.5,2.1h0.1l0.5-2.2l4.3-10.6h2.8l-6.5,14.8v9.8h-2.6V161.8z"/>
		</g>
		<g>
			<path class="st0" d="M171.3,54.2c-5.8-3.3-13.2-5-20.8-5.3c-0.5-4.2-3.6-8.2-9.3-11.4c-12.6-7-32.9-7-45.4,0L54.6,60.3
				c-6,3.3-6,12,0,15.3l61.5,35.2l55-31.5C183.3,72.5,183.5,61.1,171.3,54.2z M70.8,68l39.7-22c2-1.1,4.7-1.7,7.4-1.7
				c2.7,0,5.4,0.6,7.4,1.7c4,2.2,4.1,5.7,0.4,8c0,0,0,0,0,0c-0.1,0.1-0.2,0.1-0.3,0.2l-39.7,22L70.8,68z M155.7,71.1l-39.7,22
				l-14.8-8.2l39.7-22c2-1.1,4.7-1.7,7.4-1.7c2.7,0,5.4,0.6,7.4,1.7C159.8,65.1,159.8,68.8,155.7,71.1z"/>
			<path class="st1" d="M188,94c0-13.7-9.4-19.4-21-12.7l-50.9,29.4v67.2c0,6.7,7.3,11,13.1,7.6l37.7-21.8c11.6-6.7,21-23.3,21-37
				c0-6.3-2-10.9-5.2-13.4C186.1,107.1,188,100.3,188,94z M130,119.2L166.7,98c1.9-1.1,3.6-1.2,4.8-0.4c1.2,0.8,2,2.3,2,4.6
				c0,4.3-2.9,9.5-6.5,11.8c0,0,0,0,0,0c-0.1,0.1-0.2,0.1-0.3,0.2L130,135.4V119.2z M166.7,147.4L130,168.6v-16.2l36.7-21.2
				c1.9-1.1,3.6-1.2,4.8-0.4c1.2,0.8,2,2.3,2,4.6C173.6,139.8,170.5,145.2,166.7,147.4z"/>
			<path class="st2" d="M49.5,113.4c-3.2,2.5-5.2,7.1-5.2,13.4c0,13.7,9.4,30.3,21,37l37.7,21.8c5.8,3.4,13.1-0.8,13.1-7.6v-67.2
				L65.3,81.3c-11.6-6.7-21-1-21,12.7C44.3,100.3,46.2,107.1,49.5,113.4z M102.3,135.4l-36.7-21.2c-0.1-0.1-0.2-0.1-0.3-0.2
				c0,0,0,0,0,0c-3.6-2.3-6.5-7.5-6.5-11.8c0-2.2,0.8-3.8,2-4.6c1.2-0.8,3-0.7,4.8,0.4l36.7,21.2V135.4z M58.8,135.3
				c0-2.2,0.8-3.8,2-4.6c1.2-0.7,3-0.7,4.8,0.4l36.7,21.2v16.2l-36.7-21.2C61.8,145.2,58.8,139.8,58.8,135.3z"/>
		</g>
	</g>
</g>
</svg>
