<?xml version="1.0" encoding="utf-8"?>
<!-- Generator: Adobe Illustrator 27.0.0, SVG Export Plug-In . SVG Version: 6.00 Build 0)  -->
<svg version="1.1" id="Layer_1" xmlns="http://www.w3.org/2000/svg" xmlns:xlink="http://www.w3.org/1999/xlink" x="0px" y="0px"
	 viewBox="0 0 212.6 221.1" style="enable-background:new 0 0 212.6 221.1;" xml:space="preserve">
<style type="text/css">
	.st0{fill:#48A529;}
	.st1{fill:#6CDDB4;}
	.st2{fill:#005957;}
	.st3{fill:#231F20;}
	.st4{fill:#FFFFFF;}
</style>
<g>
	<g>
		<g>
			<path class="st0" d="M161.5,55.3c-5.8-3.3-13.2-5-20.8-5.3c-0.5-4.2-3.6-8.2-9.3-11.4c-12.6-7-32.9-7-45.4,0L44.8,61.4
				c-6,3.3-6,12,0,15.3l61.5,35.2l55-31.5C173.5,73.6,173.7,62.2,161.5,55.3z M61,69.1l39.7-22c2-1.1,4.7-1.7,7.4-1.7
				c2.7,0,5.4,0.6,7.4,1.7c4,2.2,4.1,5.7,0.4,8c0,0,0,0,0,0c-0.1,0.1-0.2,0.1-0.3,0.2l-39.7,22L61,69.1z M145.8,72.2l-39.7,22
				L91.3,86L131,64c2-1.1,4.7-1.7,7.4-1.7c2.7,0,5.4,0.6,7.4,1.7C149.9,66.2,149.9,69.9,145.8,72.2z"/>
			<path class="st1" d="M178.2,95.1c0-13.7-9.4-19.4-21-12.7l-50.9,29.4V179c0,6.7,7.3,11,13.1,7.6l37.7-21.8
				c11.6-6.7,21-23.3,21-37c0-6.3-2-10.9-5.2-13.4C176.3,108.2,178.2,101.4,178.2,95.1z M120.1,120.3l36.7-21.2
				c1.9-1.1,3.6-1.2,4.8-0.4c1.2,0.8,2,2.3,2,4.6c0,4.3-2.9,9.5-6.5,11.8c0,0,0,0,0,0c-0.1,0.1-0.2,0.1-0.3,0.2l-36.7,21.2V120.3z
				 M156.9,148.5l-36.7,21.2v-16.2l36.7-21.2c1.9-1.1,3.6-1.2,4.8-0.4c1.2,0.8,2,2.3,2,4.6C163.7,140.9,160.7,146.3,156.9,148.5z"/>
			<path class="st2" d="M39.6,114.5c-3.2,2.5-5.2,7.1-5.2,13.4c0,13.7,9.4,30.3,21,37l37.7,21.8c5.8,3.4,13.1-0.8,13.1-7.6v-67.2
				L55.5,82.4c-11.6-6.7-21-1-21,12.7C34.4,101.4,36.4,108.2,39.6,114.5z M92.5,136.5l-36.7-21.2c-0.1-0.1-0.2-0.1-0.3-0.2
				c0,0,0,0,0,0c-3.6-2.3-6.5-7.5-6.5-11.8c0-2.2,0.8-3.8,2-4.6c1.2-0.8,3-0.7,4.8,0.4l36.7,21.2V136.5z M48.9,136.5
				c0-2.2,0.8-3.8,2-4.6c1.2-0.7,3-0.7,4.8,0.4l36.7,21.2v16.2l-36.7-21.2C52,146.3,48.9,140.9,48.9,136.5z"/>
		</g>
	</g>
</g>
</svg>
