<?xml version="1.0" encoding="utf-8"?>
<!-- Generator: Adobe Illustrator 27.0.0, SVG Export Plug-In . SVG Version: 6.00 Build 0)  -->
<svg version="1.1" id="Layer_1" xmlns="http://www.w3.org/2000/svg" xmlns:xlink="http://www.w3.org/1999/xlink" x="0px" y="0px"
	 viewBox="0 0 212.6 251.2" style="enable-background:new 0 0 212.6 251.2;" xml:space="preserve">
<style type="text/css">
	.st0{fill:#48A529;}
	.st1{fill:#6CDDB4;}
	.st2{fill:#005957;}
	.st3{fill:#231F20;}
	.st4{fill:#FFFFFF;}
</style>
<g>
	<g>
		<g>
			<g>
				<path class="st0" d="M162.4,50.7c-5.8-3.3-13.2-5-20.8-5.3c-0.5-4.2-3.6-8.2-9.3-11.4c-12.6-7-32.9-7-45.4,0L45.6,56.8
					c-6,3.3-6,12,0,15.3l61.5,35.2l55-31.5C174.4,69,174.5,57.5,162.4,50.7z M61.9,64.5l39.7-22c2-1.1,4.7-1.7,7.4-1.7
					c2.7,0,5.4,0.6,7.4,1.7c4,2.2,4.1,5.7,0.4,8c0,0,0,0,0,0c-0.1,0.1-0.2,0.1-0.3,0.2l-39.7,22L61.9,64.5z M146.7,67.6l-39.7,22
					l-14.8-8.2l39.7-22c2-1.1,4.7-1.7,7.4-1.7c2.7,0,5.4,0.6,7.4,1.7C150.8,61.6,150.8,65.3,146.7,67.6z"/>
				<path class="st1" d="M179.1,90.5c0-13.7-9.4-19.4-21-12.7l-50.9,29.4v67.2c0,6.7,7.3,11,13.1,7.6l37.7-21.8
					c11.6-6.7,21-23.3,21-37c0-6.3-2-10.9-5.2-13.4C177.1,103.6,179.1,96.8,179.1,90.5z M121,115.7l36.7-21.2
					c1.9-1.1,3.6-1.2,4.8-0.4c1.2,0.8,2,2.3,2,4.6c0,4.3-2.9,9.5-6.5,11.8c0,0,0,0,0,0c-0.1,0.1-0.2,0.1-0.3,0.2L121,131.9V115.7z
					 M157.8,143.9L121,165.1v-16.2l36.7-21.2c1.9-1.1,3.6-1.2,4.8-0.4c1.2,0.8,2,2.3,2,4.6C164.6,136.3,161.5,141.7,157.8,143.9z"/>
				<path class="st2" d="M40.5,109.9c-3.2,2.5-5.2,7.1-5.2,13.4c0,13.7,9.4,30.3,21,37L94.1,182c5.8,3.4,13.1-0.8,13.1-7.6v-67.2
					L56.3,77.8c-11.6-6.7-21-1-21,12.7C35.3,96.8,37.3,103.6,40.5,109.9z M93.4,131.9l-36.7-21.2c-0.1-0.1-0.2-0.1-0.3-0.2
					c0,0,0,0,0,0c-3.6-2.3-6.5-7.5-6.5-11.8c0-2.2,0.8-3.8,2-4.6c1.2-0.8,3-0.7,4.8,0.4l36.7,21.2V131.9z M49.8,131.8
					c0-2.2,0.8-3.8,2-4.6c1.2-0.7,3-0.7,4.8,0.4l36.7,21.2v16.2l-36.7-21.2C52.9,141.7,49.8,136.3,49.8,131.8z"/>
			</g>
		</g>
	</g>
	<g>
		<g>
			<path class="st3" d="M18,195.9c0,0.3,0,0.5-0.1,0.8c-0.1,0.3-0.2,0.5-0.3,0.8c-0.1,0.2-0.3,0.5-0.5,0.6c-0.2,0.2-0.5,0.3-0.7,0.4
				v0.1c0.3,0.1,0.5,0.1,0.7,0.3c0.2,0.1,0.4,0.3,0.6,0.5c0.2,0.2,0.3,0.5,0.4,0.8c0.1,0.3,0.2,0.7,0.2,1.1c0,0.6-0.1,1.1-0.3,1.5
				c-0.2,0.4-0.4,0.8-0.7,1c-0.3,0.3-0.7,0.5-1.1,0.6c-0.4,0.1-0.8,0.2-1.3,0.2c-0.1,0-0.3,0-0.5,0s-0.4,0-0.6,0
				c-0.2,0-0.4,0-0.7-0.1c-0.2,0-0.4-0.1-0.6-0.1v-10.8c0.3-0.1,0.7-0.1,1.1-0.2c0.4,0,0.9-0.1,1.4-0.1c0.4,0,0.7,0,1.1,0.1
				c0.4,0.1,0.7,0.2,1,0.4c0.3,0.2,0.5,0.5,0.7,0.8C17.9,194.9,18,195.4,18,195.9z M14.4,198.3c0.1,0,0.3,0,0.5,0c0.2,0,0.3,0,0.5,0
				c0.4-0.2,0.7-0.4,1-0.8c0.3-0.4,0.4-0.8,0.4-1.3c0-0.3,0-0.6-0.1-0.9c-0.1-0.2-0.2-0.4-0.4-0.6c-0.2-0.1-0.4-0.2-0.6-0.3
				c-0.2-0.1-0.5-0.1-0.7-0.1c-0.3,0-0.5,0-0.7,0c-0.2,0-0.4,0-0.5,0.1v3.8H14.4z M15,203.5c0.3,0,0.5,0,0.8-0.1
				c0.2-0.1,0.5-0.2,0.6-0.4c0.2-0.2,0.3-0.4,0.4-0.7c0.1-0.3,0.2-0.6,0.2-0.9c0-0.4-0.1-0.8-0.2-1c-0.1-0.3-0.3-0.5-0.5-0.6
				c-0.2-0.1-0.4-0.2-0.7-0.3c-0.3-0.1-0.5-0.1-0.8-0.1h-1.1v4c0.1,0,0.1,0,0.2,0c0.1,0,0.2,0,0.3,0c0.1,0,0.2,0,0.4,0
				C14.8,203.5,14.9,203.5,15,203.5z"/>
			<path class="st3" d="M20.4,193.4h1.2v11h-1.2V193.4z"/>
			<path class="st3" d="M23.7,198.9c0-1.9,0.3-3.3,0.9-4.2c0.6-1,1.5-1.4,2.7-1.4c0.7,0,1.2,0.1,1.7,0.4c0.5,0.3,0.8,0.6,1.1,1.1
				c0.3,0.5,0.5,1.1,0.6,1.8c0.1,0.7,0.2,1.5,0.2,2.4c0,1.9-0.3,3.3-0.9,4.2c-0.6,1-1.5,1.4-2.7,1.4c-0.6,0-1.2-0.1-1.7-0.4
				c-0.5-0.3-0.8-0.6-1.1-1.1c-0.3-0.5-0.5-1.1-0.6-1.8C23.7,200.6,23.7,199.8,23.7,198.9z M24.9,198.9c0,0.6,0,1.2,0.1,1.8
				c0.1,0.6,0.2,1,0.4,1.5c0.2,0.4,0.4,0.8,0.7,1c0.3,0.3,0.7,0.4,1.1,0.4c0.8,0,1.4-0.4,1.8-1.1c0.4-0.8,0.6-1.9,0.6-3.5
				c0-0.6,0-1.2-0.1-1.7c-0.1-0.6-0.2-1-0.4-1.5c-0.2-0.4-0.4-0.8-0.7-1c-0.3-0.3-0.7-0.4-1.1-0.4c-0.8,0-1.4,0.4-1.8,1.1
				C25.1,196.2,24.9,197.4,24.9,198.9z"/>
			<path class="st3" d="M32.8,193.4c0.2,0,0.4-0.1,0.6-0.1c0.2,0,0.4,0,0.6,0c0.2,0,0.4,0,0.6,0s0.4,0,0.6,0c0.8,0,1.4,0.1,1.9,0.4
				c0.5,0.3,1,0.6,1.3,1.1c0.3,0.5,0.6,1.1,0.7,1.8c0.1,0.7,0.2,1.4,0.2,2.3c0,0.8-0.1,1.5-0.2,2.2s-0.4,1.3-0.7,1.8
				c-0.3,0.5-0.8,0.9-1.3,1.3c-0.6,0.3-1.2,0.5-2.1,0.5c-0.1,0-0.3,0-0.5,0c-0.2,0-0.4,0-0.7,0c-0.2,0-0.4,0-0.6,0
				c-0.2,0-0.3,0-0.4,0V193.4z M35.3,194.4c-0.1,0-0.2,0-0.3,0c-0.1,0-0.2,0-0.4,0c-0.1,0-0.2,0-0.3,0c-0.1,0-0.2,0-0.2,0v9
				c0,0,0.1,0,0.2,0s0.2,0,0.3,0s0.2,0,0.3,0c0.1,0,0.2,0,0.2,0c0.6,0,1.1-0.1,1.4-0.4c0.4-0.3,0.7-0.6,0.9-1
				c0.2-0.4,0.4-0.9,0.5-1.5c0.1-0.6,0.1-1.2,0.1-1.8c0-0.6,0-1.1-0.1-1.6c-0.1-0.5-0.2-1-0.4-1.4c-0.2-0.4-0.5-0.7-0.9-1
				C36.3,194.5,35.9,194.4,35.3,194.4z"/>
			<path class="st3" d="M41.5,193.4h1.2v11h-1.2V193.4z"/>
			<path class="st3" d="M47.6,201l0.3,1.7h0l0.3-1.7l2-7.5h1.2l-3.3,11.2h-0.6l-3.4-11.2h1.3L47.6,201z"/>
			<path class="st3" d="M52.6,193.4h4.9v1.1h-3.7v3.7h3.4v1.1h-3.4v4h3.8v1.1h-5V193.4z"/>
			<path class="st3" d="M59.6,193.6c0.3-0.1,0.7-0.1,1.1-0.2c0.4,0,0.8-0.1,1.1-0.1c0.4,0,0.8,0,1.2,0.1c0.4,0.1,0.7,0.3,1,0.5
				c0.3,0.2,0.5,0.5,0.7,0.9c0.2,0.4,0.2,0.9,0.2,1.4c0,0.9-0.2,1.6-0.5,2.1c-0.4,0.5-0.8,0.9-1.4,1.1l0.6,0.6l2.2,4.4h-1.4
				l-2.4-4.8l-1.2-0.2v5h-1.2V193.6z M60.8,198.6h0.9c0.6,0,1.1-0.2,1.4-0.6c0.3-0.4,0.5-0.9,0.5-1.7c0-0.6-0.1-1.1-0.4-1.4
				c-0.3-0.4-0.7-0.6-1.3-0.6c-0.2,0-0.4,0-0.7,0s-0.4,0-0.5,0.1V198.6z"/>
			<path class="st3" d="M67.2,203c0.2,0.1,0.5,0.3,0.8,0.4c0.4,0.1,0.8,0.2,1.2,0.2c0.6,0,1.1-0.1,1.4-0.4c0.4-0.3,0.6-0.7,0.6-1.4
				c0-0.4-0.1-0.8-0.3-1.1c-0.2-0.3-0.5-0.6-0.8-0.8c-0.3-0.3-0.7-0.5-1-0.8c-0.4-0.2-0.7-0.5-1-0.8c-0.3-0.3-0.6-0.6-0.8-1
				c-0.2-0.4-0.3-0.9-0.3-1.4c0-0.9,0.3-1.5,0.8-2c0.5-0.4,1.2-0.6,2.1-0.6c0.5,0,1,0,1.4,0.1s0.7,0.2,1,0.4l-0.4,1
				c-0.2-0.1-0.5-0.2-0.8-0.3c-0.4-0.1-0.8-0.1-1.2-0.1c-0.6,0-1,0.1-1.3,0.4c-0.3,0.3-0.4,0.6-0.4,1c0,0.4,0.1,0.7,0.3,1
				c0.2,0.3,0.5,0.6,0.8,0.8c0.3,0.3,0.7,0.5,1,0.8c0.4,0.3,0.7,0.5,1,0.9c0.3,0.3,0.6,0.7,0.8,1.1c0.2,0.4,0.3,0.9,0.3,1.4
				c0,0.9-0.3,1.6-0.8,2.2c-0.5,0.5-1.3,0.8-2.3,0.8c-0.6,0-1.1-0.1-1.5-0.2c-0.4-0.1-0.7-0.2-1-0.4L67.2,203z"/>
			<path class="st3" d="M74.5,193.4h1.2v11h-1.2V193.4z"/>
			<path class="st3" d="M83.9,194.5h-2.7v9.9H80v-9.9h-2.7v-1.1h6.6V194.5z"/>
			<path class="st3" d="M87.1,200.1l-2.9-6.6h1.4l2,4.8l0.2,1h0l0.2-1l1.9-4.8h1.3l-2.9,6.6v4.4h-1.2V200.1z"/>
			<path class="st3" d="M102,195.3c0,0.3,0,0.5-0.1,0.8c-0.1,0.3-0.2,0.5-0.3,0.8c-0.1,0.2-0.3,0.5-0.5,0.6
				c-0.2,0.2-0.5,0.3-0.7,0.4v0.1c0.3,0.1,0.5,0.1,0.7,0.3c0.2,0.1,0.4,0.3,0.6,0.5c0.2,0.2,0.3,0.5,0.4,0.8
				c0.1,0.3,0.2,0.7,0.2,1.1c0,0.6-0.1,1.1-0.3,1.5c-0.2,0.4-0.4,0.8-0.7,1c-0.3,0.3-0.7,0.5-1.1,0.6c-0.4,0.1-0.8,0.2-1.3,0.2
				c-0.1,0-0.3,0-0.5,0c-0.2,0-0.4,0-0.6,0c-0.2,0-0.4,0-0.7-0.1c-0.2,0-0.4-0.1-0.6-0.1v-10.8c0.3-0.1,0.7-0.1,1.1-0.2
				c0.4,0,0.9-0.1,1.4-0.1c0.4,0,0.7,0,1.1,0.1c0.4,0.1,0.7,0.2,1,0.4c0.3,0.2,0.5,0.5,0.7,0.8S102,194.8,102,195.3z M98.4,197.7
				c0.1,0,0.3,0,0.5,0c0.2,0,0.3,0,0.5,0c0.4-0.2,0.7-0.4,1-0.8c0.3-0.4,0.4-0.8,0.4-1.3c0-0.3,0-0.6-0.1-0.9
				c-0.1-0.2-0.2-0.4-0.4-0.6c-0.2-0.1-0.4-0.2-0.6-0.3c-0.2-0.1-0.5-0.1-0.7-0.1c-0.3,0-0.5,0-0.7,0c-0.2,0-0.4,0-0.5,0.1v3.8H98.4
				z M99.1,202.9c0.3,0,0.5,0,0.8-0.1c0.2-0.1,0.5-0.2,0.6-0.4c0.2-0.2,0.3-0.4,0.4-0.7c0.1-0.3,0.2-0.6,0.2-0.9
				c0-0.4-0.1-0.8-0.2-1c-0.1-0.3-0.3-0.5-0.5-0.6c-0.2-0.1-0.4-0.2-0.7-0.3c-0.3-0.1-0.5-0.1-0.8-0.1h-1.1v4c0.1,0,0.1,0,0.2,0
				c0.1,0,0.2,0,0.3,0s0.2,0,0.4,0C98.8,202.9,99,202.9,99.1,202.9z"/>
			<path class="st3" d="M109.2,192.8h1.1v7.4c0,1.3-0.3,2.3-0.8,2.9c-0.5,0.6-1.3,0.9-2.2,0.9c-1.1,0-1.9-0.3-2.4-0.9
				c-0.5-0.6-0.8-1.5-0.8-2.7v-7.6h1.2v7c0,0.6,0,1,0.1,1.4c0.1,0.4,0.2,0.7,0.4,0.9c0.2,0.2,0.4,0.4,0.6,0.5
				c0.3,0.1,0.6,0.2,0.9,0.2c0.7,0,1.2-0.2,1.4-0.7c0.3-0.5,0.4-1.3,0.4-2.3V192.8z"/>
			<path class="st3" d="M112.8,192.8h1.2v11h-1.2V192.8z"/>
			<path class="st3" d="M121.8,203.8h-5.3v-11h1.2v9.9h4.1V203.8z"/>
			<path class="st3" d="M123.2,192.8c0.2,0,0.4-0.1,0.6-0.1c0.2,0,0.4,0,0.6,0c0.2,0,0.4,0,0.6,0c0.2,0,0.4,0,0.6,0
				c0.8,0,1.4,0.1,1.9,0.4c0.5,0.3,1,0.6,1.3,1.1c0.3,0.5,0.6,1.1,0.7,1.8c0.1,0.7,0.2,1.4,0.2,2.3c0,0.8-0.1,1.5-0.2,2.2
				c-0.1,0.7-0.4,1.3-0.7,1.8c-0.3,0.5-0.8,0.9-1.3,1.3c-0.6,0.3-1.2,0.5-2.1,0.5c-0.1,0-0.3,0-0.5,0c-0.2,0-0.4,0-0.7,0
				c-0.2,0-0.4,0-0.6,0c-0.2,0-0.3,0-0.4,0V192.8z M125.6,193.8c-0.1,0-0.2,0-0.3,0s-0.2,0-0.4,0c-0.1,0-0.2,0-0.3,0
				c-0.1,0-0.2,0-0.2,0v9c0,0,0.1,0,0.2,0s0.2,0,0.3,0s0.2,0,0.3,0c0.1,0,0.2,0,0.2,0c0.6,0,1.1-0.1,1.4-0.4c0.4-0.3,0.7-0.6,0.9-1
				c0.2-0.4,0.4-0.9,0.5-1.5c0.1-0.6,0.1-1.2,0.1-1.8c0-0.6,0-1.1-0.1-1.6c-0.1-0.5-0.2-1-0.4-1.4c-0.2-0.4-0.5-0.7-0.9-1
				C126.7,193.9,126.2,193.8,125.6,193.8z"/>
			<path class="st3" d="M131.9,192.8h1.2v11h-1.2V192.8z"/>
			<path class="st3" d="M137.2,196.9l-0.7-1.7h0l0.2,1.7v7h-1.1v-11.2h0.7l4.1,7.1l0.6,1.6h0.1l-0.2-1.6v-7h1.1V204h-0.7
				L137.2,196.9z"/>
			<path class="st3" d="M147.2,198.4h3v4.8c-0.3,0.3-0.7,0.5-1.1,0.6c-0.5,0.1-0.9,0.2-1.4,0.2c-0.6,0-1.1-0.1-1.6-0.3
				c-0.5-0.2-0.9-0.6-1.2-1c-0.3-0.5-0.6-1.1-0.8-1.8c-0.2-0.7-0.3-1.6-0.3-2.6c0-1,0.1-1.9,0.3-2.6c0.2-0.7,0.5-1.3,0.9-1.8
				c0.4-0.5,0.8-0.8,1.3-1c0.5-0.2,1-0.3,1.5-0.3s0.9,0,1.3,0.1s0.6,0.2,0.9,0.3l-0.3,1.1c-0.2-0.1-0.5-0.2-0.7-0.3
				c-0.3-0.1-0.6-0.1-1-0.1c-0.4,0-0.7,0.1-1.1,0.2s-0.6,0.4-0.9,0.8c-0.3,0.4-0.5,0.8-0.6,1.4c-0.2,0.6-0.2,1.3-0.2,2.2
				c0,1.6,0.2,2.7,0.7,3.5c0.5,0.7,1.2,1.1,2.1,1.1c0.5,0,1-0.1,1.4-0.4v-3.2l-2-0.3V198.4z"/>
			<path class="st3" d="M162.8,195.3c0,0.3,0,0.5-0.1,0.8c-0.1,0.3-0.2,0.5-0.3,0.8c-0.1,0.2-0.3,0.5-0.5,0.6
				c-0.2,0.2-0.5,0.3-0.7,0.4v0.1c0.3,0.1,0.5,0.1,0.7,0.3c0.2,0.1,0.4,0.3,0.6,0.5c0.2,0.2,0.3,0.5,0.4,0.8
				c0.1,0.3,0.2,0.7,0.2,1.1c0,0.6-0.1,1.1-0.3,1.5c-0.2,0.4-0.4,0.8-0.7,1c-0.3,0.3-0.7,0.5-1.1,0.6c-0.4,0.1-0.8,0.2-1.3,0.2
				c-0.1,0-0.3,0-0.5,0s-0.4,0-0.6,0c-0.2,0-0.4,0-0.7-0.1c-0.2,0-0.4-0.1-0.6-0.1v-10.8c0.3-0.1,0.7-0.1,1.1-0.2
				c0.4,0,0.9-0.1,1.4-0.1c0.4,0,0.7,0,1.1,0.1c0.4,0.1,0.7,0.2,1,0.4c0.3,0.2,0.5,0.5,0.7,0.8S162.8,194.8,162.8,195.3z
				 M159.2,197.7c0.1,0,0.3,0,0.5,0c0.2,0,0.3,0,0.5,0c0.4-0.2,0.7-0.4,1-0.8c0.3-0.4,0.4-0.8,0.4-1.3c0-0.3,0-0.6-0.1-0.9
				c-0.1-0.2-0.2-0.4-0.4-0.6c-0.2-0.1-0.4-0.2-0.6-0.3c-0.2-0.1-0.5-0.1-0.7-0.1c-0.3,0-0.5,0-0.7,0s-0.4,0-0.5,0.1v3.8H159.2z
				 M159.8,202.9c0.3,0,0.5,0,0.8-0.1c0.2-0.1,0.5-0.2,0.6-0.4c0.2-0.2,0.3-0.4,0.4-0.7c0.1-0.3,0.2-0.6,0.2-0.9
				c0-0.4-0.1-0.8-0.2-1c-0.1-0.3-0.3-0.5-0.5-0.6c-0.2-0.1-0.4-0.2-0.7-0.3c-0.3-0.1-0.5-0.1-0.8-0.1h-1.1v4c0.1,0,0.1,0,0.2,0
				c0.1,0,0.2,0,0.3,0c0.1,0,0.2,0,0.4,0C159.6,202.9,159.7,202.9,159.8,202.9z"/>
			<path class="st3" d="M170.2,203.8H165v-11h1.2v9.9h4.1V203.8z"/>
			<path class="st3" d="M170.5,198.3c0-1.9,0.3-3.3,0.9-4.2c0.6-1,1.5-1.4,2.7-1.4c0.7,0,1.2,0.1,1.7,0.4c0.5,0.3,0.8,0.6,1.1,1.1
				c0.3,0.5,0.5,1.1,0.6,1.8c0.1,0.7,0.2,1.5,0.2,2.4c0,1.9-0.3,3.3-0.9,4.2c-0.6,1-1.5,1.4-2.7,1.4c-0.6,0-1.2-0.1-1.7-0.4
				c-0.5-0.3-0.8-0.6-1.1-1.1c-0.3-0.5-0.5-1.1-0.6-1.8C170.5,200,170.5,199.2,170.5,198.3z M171.7,198.3c0,0.6,0,1.2,0.1,1.8
				c0.1,0.6,0.2,1,0.4,1.5c0.2,0.4,0.4,0.8,0.7,1c0.3,0.3,0.7,0.4,1.1,0.4c0.8,0,1.4-0.4,1.8-1.1c0.4-0.8,0.6-1.9,0.6-3.5
				c0-0.6,0-1.2-0.1-1.7c-0.1-0.6-0.2-1-0.4-1.5c-0.2-0.4-0.4-0.8-0.7-1c-0.3-0.3-0.7-0.4-1.1-0.4c-0.8,0-1.4,0.4-1.8,1.1
				C171.9,195.6,171.7,196.8,171.7,198.3z"/>
			<path class="st3" d="M185.4,203.4c-0.3,0.2-0.6,0.4-1,0.5c-0.4,0.1-0.8,0.1-1.3,0.1c-0.6,0-1.1-0.1-1.5-0.3
				c-0.5-0.2-0.9-0.5-1.2-1c-0.3-0.5-0.6-1-0.8-1.8s-0.3-1.6-0.3-2.6c0-1,0.1-1.9,0.3-2.7c0.2-0.7,0.5-1.3,0.9-1.8
				c0.4-0.5,0.8-0.8,1.2-1c0.5-0.2,0.9-0.3,1.4-0.3c0.5,0,0.9,0,1.2,0.1c0.3,0.1,0.6,0.2,0.9,0.3l-0.3,1.1c-0.2-0.1-0.5-0.2-0.7-0.3
				c-0.3-0.1-0.6-0.1-1-0.1c-0.4,0-0.7,0.1-1,0.2c-0.3,0.2-0.6,0.4-0.9,0.8c-0.3,0.4-0.5,0.8-0.6,1.4c-0.1,0.6-0.2,1.3-0.2,2.2
				c0,1.5,0.3,2.7,0.8,3.4c0.5,0.8,1.2,1.2,2.1,1.2c0.4,0,0.7,0,1-0.1c0.3-0.1,0.5-0.2,0.7-0.4L185.4,203.4z"/>
			<path class="st3" d="M188.8,198.7h-0.6v5.1H187v-11h1.2v5.1l0.6-0.2l2.9-4.9h1.4l-2.9,4.7l-0.6,0.5l0.6,0.6l3.2,5.1h-1.5
				L188.8,198.7z"/>
			<path class="st3" d="M194.9,202.4c0.2,0.1,0.5,0.3,0.8,0.4c0.4,0.1,0.8,0.2,1.2,0.2c0.6,0,1.1-0.1,1.4-0.4
				c0.4-0.3,0.6-0.7,0.6-1.4c0-0.4-0.1-0.8-0.3-1.1c-0.2-0.3-0.5-0.6-0.8-0.8c-0.3-0.3-0.7-0.5-1-0.8c-0.4-0.2-0.7-0.5-1-0.8
				c-0.3-0.3-0.6-0.6-0.8-1c-0.2-0.4-0.3-0.9-0.3-1.4c0-0.9,0.3-1.5,0.8-2c0.5-0.4,1.2-0.6,2.1-0.6c0.5,0,1,0,1.4,0.1
				c0.4,0.1,0.7,0.2,1,0.4l-0.4,1c-0.2-0.1-0.5-0.2-0.8-0.3c-0.4-0.1-0.8-0.1-1.2-0.1c-0.6,0-1,0.1-1.3,0.4c-0.3,0.3-0.4,0.6-0.4,1
				c0,0.4,0.1,0.7,0.3,1c0.2,0.3,0.5,0.6,0.8,0.8c0.3,0.3,0.7,0.5,1,0.8c0.4,0.3,0.7,0.5,1,0.9c0.3,0.3,0.6,0.7,0.8,1.1
				c0.2,0.4,0.3,0.9,0.3,1.4c0,0.9-0.3,1.6-0.8,2.2c-0.5,0.5-1.3,0.8-2.3,0.8c-0.6,0-1.1-0.1-1.5-0.2c-0.4-0.1-0.7-0.2-1-0.4
				L194.9,202.4z"/>
		</g>
		<g>
			<path class="st3" d="M71.3,211.3h4.9v1.1h-3.7v3.9H76v1.1h-3.5v4.9h-1.2V211.3z"/>
			<path class="st3" d="M77.9,216.8c0-1.9,0.3-3.3,0.9-4.2c0.6-1,1.5-1.4,2.7-1.4c0.7,0,1.2,0.1,1.7,0.4c0.5,0.3,0.8,0.6,1.1,1.1
				c0.3,0.5,0.5,1.1,0.6,1.8c0.1,0.7,0.2,1.5,0.2,2.4c0,1.9-0.3,3.3-0.9,4.2c-0.6,1-1.5,1.4-2.7,1.4c-0.6,0-1.2-0.1-1.7-0.4
				c-0.5-0.3-0.8-0.6-1.1-1.1c-0.3-0.5-0.5-1.1-0.6-1.8C77.9,218.5,77.9,217.7,77.9,216.8z M79.1,216.8c0,0.6,0,1.2,0.1,1.8
				c0.1,0.6,0.2,1,0.4,1.5c0.2,0.4,0.4,0.8,0.7,1c0.3,0.3,0.7,0.4,1.1,0.4c0.8,0,1.4-0.4,1.8-1.1c0.4-0.8,0.6-1.9,0.6-3.5
				c0-0.6,0-1.2-0.1-1.7c-0.1-0.6-0.2-1-0.4-1.5c-0.2-0.4-0.4-0.8-0.7-1c-0.3-0.3-0.7-0.4-1.1-0.4c-0.8,0-1.4,0.4-1.8,1.1
				C79.3,214.1,79.1,215.2,79.1,216.8z"/>
			<path class="st3" d="M87.2,211.4c0.3-0.1,0.7-0.1,1.1-0.2c0.4,0,0.8-0.1,1.1-0.1c0.4,0,0.8,0.1,1.2,0.1c0.4,0.1,0.7,0.3,1,0.5
				c0.3,0.2,0.5,0.5,0.7,0.9c0.2,0.4,0.2,0.9,0.2,1.4c0,0.9-0.2,1.6-0.5,2.1c-0.4,0.5-0.8,0.9-1.4,1.1l0.6,0.6l2.2,4.4h-1.4
				l-2.4-4.8l-1.2-0.2v5h-1.2V211.4z M88.4,216.5h0.9c0.6,0,1.1-0.2,1.4-0.6c0.3-0.4,0.5-0.9,0.5-1.7c0-0.6-0.1-1.1-0.4-1.4
				c-0.3-0.4-0.7-0.6-1.3-0.6c-0.2,0-0.4,0-0.7,0s-0.4,0-0.5,0.1V216.5z"/>
			<path class="st3" d="M101,210.8c0.3-0.1,0.7-0.2,1.1-0.2c0.4,0,0.7,0,1.1,0c0.4,0,0.8,0,1.2,0.1c0.4,0.1,0.8,0.3,1.1,0.5
				c0.3,0.3,0.6,0.6,0.8,1c0.2,0.4,0.3,1,0.3,1.7c0,0.7-0.1,1.2-0.3,1.7c-0.2,0.5-0.5,0.8-0.8,1.1c-0.3,0.3-0.7,0.5-1.1,0.6
				c-0.4,0.1-0.8,0.2-1.3,0.2c0,0-0.1,0-0.2,0c-0.1,0-0.2,0-0.3,0c-0.1,0-0.2,0-0.3,0c-0.1,0-0.2,0-0.2,0v4.2H101V210.8z
				 M103.2,211.6c-0.2,0-0.4,0-0.6,0c-0.2,0-0.3,0-0.5,0.1v4.7c0,0,0.1,0,0.2,0c0.1,0,0.2,0,0.3,0c0.1,0,0.2,0,0.3,0
				c0.1,0,0.2,0,0.2,0c0.3,0,0.6,0,0.8-0.1c0.3-0.1,0.5-0.2,0.7-0.4c0.2-0.2,0.4-0.5,0.5-0.8c0.1-0.3,0.2-0.7,0.2-1.2
				c0-0.4-0.1-0.8-0.2-1.1c-0.1-0.3-0.3-0.5-0.5-0.7c-0.2-0.2-0.4-0.3-0.7-0.4C103.8,211.7,103.5,211.6,103.2,211.6z"/>
			<path class="st3" d="M107.9,216.2c0-1.9,0.3-3.3,0.9-4.2c0.6-1,1.5-1.4,2.7-1.4c0.7,0,1.2,0.1,1.7,0.4c0.5,0.3,0.8,0.6,1.1,1.1
				c0.3,0.5,0.5,1.1,0.6,1.8c0.1,0.7,0.2,1.5,0.2,2.4c0,1.9-0.3,3.3-0.9,4.2c-0.6,1-1.5,1.4-2.7,1.4c-0.6,0-1.2-0.1-1.7-0.4
				c-0.5-0.3-0.8-0.6-1.1-1.1c-0.3-0.5-0.5-1.1-0.6-1.8C108,217.8,107.9,217.1,107.9,216.2z M109.1,216.2c0,0.6,0,1.2,0.1,1.8
				c0.1,0.6,0.2,1,0.4,1.5c0.2,0.4,0.4,0.8,0.7,1c0.3,0.3,0.7,0.4,1.1,0.4c0.8,0,1.4-0.4,1.8-1.1c0.4-0.8,0.6-1.9,0.6-3.5
				c0-0.6,0-1.2-0.1-1.7c-0.1-0.6-0.2-1-0.4-1.5c-0.2-0.4-0.4-0.8-0.7-1c-0.3-0.3-0.7-0.4-1.1-0.4c-0.8,0-1.4,0.4-1.8,1.1
				C109.4,213.5,109.1,214.6,109.1,216.2z"/>
			<path class="st3" d="M122.5,221.7h-5.3v-11h1.2v9.9h4.1V221.7z"/>
			<path class="st3" d="M124.4,210.7h1.2v11h-1.2V210.7z"/>
			<path class="st3" d="M133.9,221.3c-0.3,0.2-0.6,0.4-1,0.5c-0.4,0.1-0.8,0.1-1.3,0.1c-0.6,0-1.1-0.1-1.5-0.3
				c-0.5-0.2-0.9-0.5-1.2-1c-0.3-0.5-0.6-1-0.8-1.8c-0.2-0.7-0.3-1.6-0.3-2.6c0-1,0.1-1.9,0.3-2.7c0.2-0.7,0.5-1.3,0.9-1.8
				c0.4-0.5,0.8-0.8,1.2-1c0.5-0.2,0.9-0.3,1.4-0.3c0.5,0,0.9,0,1.2,0.1c0.3,0.1,0.6,0.2,0.9,0.3l-0.3,1.1c-0.2-0.1-0.5-0.2-0.7-0.3
				c-0.3-0.1-0.6-0.1-1-0.1c-0.4,0-0.7,0.1-1,0.2c-0.3,0.2-0.6,0.4-0.9,0.8c-0.3,0.4-0.5,0.8-0.6,1.4c-0.1,0.6-0.2,1.3-0.2,2.2
				c0,1.5,0.3,2.7,0.8,3.4c0.5,0.8,1.2,1.2,2.1,1.2c0.4,0,0.7,0,1-0.1c0.3-0.1,0.5-0.2,0.7-0.4L133.9,221.3z"/>
			<path class="st3" d="M137.3,217.3l-2.9-6.6h1.4l2,4.8l0.2,1h0l0.2-1l1.9-4.8h1.3l-2.9,6.6v4.4h-1.2V217.3z"/>
		</g>
	</g>
</g>
</svg>
